<svg width="90" height="90" viewBox="0 0 90 90" fill="none" xmlns="http://www.w3.org/2000/svg">
<path d="M80.3571 11.25H9.64287C6.09246 11.25 3.21429 14.1282 3.21429 17.6786V72.3214C3.21429 75.8719 6.09246 78.75 9.64287 78.75H80.3571C83.9076 78.75 86.7857 75.8719 86.7857 72.3214V17.6786C86.7857 14.1282 83.9076 11.25 80.3571 11.25Z" fill="white"/>
<path d="M80.3571 11.25H9.64287C6.09246 11.25 3.21429 14.1282 3.21429 17.6786V72.3214C3.21429 75.8719 6.09246 78.75 9.64287 78.75H80.3571C83.9076 78.75 86.7857 75.8719 86.7857 72.3214V17.6786C86.7857 14.1282 83.9076 11.25 80.3571 11.25Z" stroke="#333333" stroke-linecap="round" stroke-linejoin="round"/>
<path d="M3.21429 19.2857L40.8857 51.4286C42.0409 52.3907 43.4967 52.9176 45 52.9176C46.5033 52.9176 47.9591 52.3907 49.1143 51.4286L86.7857 19.2857" stroke="#333333" stroke-linecap="round" stroke-linejoin="round"/>
</svg>
