<svg width="100" height="100" viewBox="0 0 100 100" fill="none" xmlns="http://www.w3.org/2000/svg">
<circle cx="50" cy="49" r="44" fill="#A1E1E5"/>
<path d="M76.1423 56.2334C76.1423 68.3837 64.2779 78.2334 49.6423 78.2334C35.0068 78.2334 23.1423 68.3837 23.1423 56.2334C23.1423 44.0832 35.0068 34.2334 49.6423 34.2334C64.2779 34.2334 76.1423 44.0832 76.1423 56.2334Z" fill="#E3D5B1"/>
<path d="M25.6218 30.63C25.7879 29.0499 27.6415 28.285 28.8736 29.2882L44.5681 42.066C45.7432 43.0227 45.469 44.8877 44.0683 45.4657L26.2578 52.8153C24.8571 53.3933 23.3474 52.2644 23.5058 50.7575L25.6218 30.63Z" fill="#E3D5B1"/>
<path d="M73.601 29.63C73.4349 28.0499 71.5814 27.285 70.3492 28.2882L54.6547 41.066C53.4797 42.0227 53.7539 43.8877 55.1545 44.4657L72.965 51.8153C74.3657 52.3933 75.8754 51.2644 75.717 49.7575L73.601 29.63Z" fill="#E3D5B1"/>
<ellipse cx="35.4019" cy="57.0242" rx="3.5" ry="5.5" transform="rotate(10 35.4019 57.0242)" fill="#333333"/>
<ellipse cx="63.4019" cy="57.0242" rx="3.5" ry="5.5" transform="rotate(-10 63.4019 57.0242)" fill="#333333"/>
<path d="M41 62C43.9843 68.719 45.8534 68.6142 49.5 62C46.5157 68.719 44.6466 68.6142 41 62Z" stroke="black"/>
<path d="M58 62C55.0157 68.719 53.1466 68.6142 49.5 62C52.4843 68.719 54.3534 68.6142 58 62Z" stroke="black"/>
</svg>
